<?xml version="1.0" standalone="no"?>
<!DOCTYPE svg PUBLIC "-//W3C//DTD SVG 20010904//EN"
 "http://www.w3.org/TR/2001/REC-SVG-20010904/DTD/svg10.dtd">
<svg version="1.0" xmlns="http://www.w3.org/2000/svg"
 width="3279.000000pt" height="968.000000pt" viewBox="0 0 3279.000000 968.000000"
 preserveAspectRatio="xMidYMid meet">

<g transform="translate(0.000000,968.000000) scale(0.100000,-0.100000)"
fill="#000000" stroke="none">
<path d="M605 7802 c-218 -65 -470 -367 -560 -671 -36 -121 -36 -282 0 -377
28 -75 61 -119 113 -151 143 -88 374 -15 558 178 161 170 257 390 270 619 9
162 -3 212 -64 266 -26 23 -44 45 -40 50 5 4 17 -1 28 -11 11 -10 20 -14 20
-8 0 13 -57 63 -64 56 -3 -4 -6 1 -6 10 0 10 -3 16 -7 15 -5 -1 -26 6 -48 16
-59 26 -130 29 -200 8z m186 -19 c13 -16 12 -17 -3 -4 -17 13 -22 21 -14 21 2
0 10 -8 17 -17z"/>
<path d="M1770 6835 c0 -5 39 -50 88 -99 48 -49 74 -80 57 -69 -16 12 -60 52
-97 91 l-67 70 -133 -145 c-73 -80 -154 -173 -179 -207 -307 -411 -334 -964
-66 -1361 140 -207 322 -339 567 -412 86 -25 110 -27 245 -27 161 0 245 15
385 70 250 97 471 300 599 550 l29 57 -21 19 -22 19 22 -13 c12 -7 24 -10 27
-7 8 7 -370 394 -385 394 -8 0 -14 5 -14 12 0 7 -192 209 -427 450 -501 514
-608 621 -608 608z m285 -305 c44 -44 77 -80 75 -80 -3 0 -41 36 -85 80 -44
44 -77 80 -75 80 3 0 41 -36 85 -80z m279 -289 c-6 -6 -144 130 -144 143 0 6
34 -23 75 -64 41 -41 72 -76 69 -79z m165 -155 c40 -40 69 -75 65 -78 -5 -2
-42 31 -83 74 -95 99 -80 102 18 4z m211 -211 c41 -41 71 -78 67 -82 -8 -7
-157 135 -157 149 0 18 20 4 90 -67z m220 -230 c41 -41 72 -77 69 -79 -3 -3
-41 30 -84 74 -44 44 -75 80 -70 80 6 0 44 -34 85 -75z m194 -194 c22 -22 37
-44 33 -48 -8 -7 -107 85 -107 99 0 14 33 -9 74 -51z"/>
<path d="M4030 4535 c0 -5 17 -26 37 -47 47 -48 36 -50 -16 -3 -46 42 -55 40
-136 -30 -223 -195 -365 -516 -365 -822 0 -192 55 -360 190 -581 174 -285 234
-415 267 -577 22 -105 21 -293 -1 -410 -52 -280 -145 -466 -321 -640 -109
-108 -182 -153 -328 -200 -264 -86 -425 -208 -497 -375 -33 -77 -33 -201 0
-280 120 -284 513 -517 928 -551 304 -25 597 32 783 153 287 185 300 490 32
754 -63 62 -92 113 -149 262 -89 236 -65 495 76 799 125 269 335 475 591 579
35 15 107 38 159 52 89 24 110 26 315 26 126 0 238 -5 263 -11 23 -6 42 -9 42
-6 0 12 -463 482 -473 480 -6 -1 -11 3 -12 10 0 17 -424 453 -438 450 -6 -1
-11 4 -12 10 0 7 -190 207 -422 445 -477 490 -513 526 -513 513z m317 -336
c-1 -4 7 -15 18 -23 11 -8 15 -16 8 -16 -7 0 -24 16 -39 36 -15 19 -59 66 -97
102 -38 37 -83 85 -100 107 -16 22 24 -14 91 -79 66 -66 120 -123 119 -127z
m-96 54 c13 -16 12 -17 -3 -4 -10 7 -18 15 -18 17 0 8 8 3 21 -13z m40 -40
c13 -16 12 -17 -3 -4 -17 13 -22 21 -14 21 2 0 10 -8 17 -17z m245 -205 l19
-23 -25 20 c-14 11 -27 21 -29 22 -2 2 0 3 6 3 5 0 18 -10 29 -22z m45 -45
c13 -16 12 -17 -3 -4 -17 13 -22 21 -14 21 2 0 10 -8 17 -17z m100 -110 c13
-16 12 -17 -3 -4 -17 13 -22 21 -14 21 2 0 10 -8 17 -17z m40 -40 c13 -16 12
-17 -3 -4 -10 7 -18 15 -18 17 0 8 8 3 21 -13z m83 -90 c9 -20 3 -16 -39 29
l-40 42 37 -30 c20 -16 39 -35 42 -41z m37 -40 c13 -16 12 -17 -3 -4 -17 13
-22 21 -14 21 2 0 10 -8 17 -17z m59 -58 c19 -19 32 -35 29 -35 -3 0 -20 16
-39 35 -19 19 -32 35 -29 35 3 0 20 -16 39 -35z m160 -160 l45 -50 -47 45
c-27 24 -48 48 -48 54 0 5 1 7 3 5 1 -2 22 -27 47 -54z m71 -72 c13 -16 12
-17 -3 -4 -17 13 -22 21 -14 21 2 0 10 -8 17 -17z m189 -178 c41 -41 71 -78
67 -82 -8 -7 -157 135 -157 149 0 18 20 4 90 -67z m274 -294 c-6 -6 -154 140
-154 154 0 5 36 -26 80 -70 44 -43 77 -81 74 -84z m-23 -8 c13 -16 12 -17 -3
-4 -17 13 -22 21 -14 21 2 0 10 -8 17 -17z m194 -155 c55 -56 88 -92 73 -78
-16 13 -28 19 -28 14 0 -4 -36 27 -79 71 -44 43 -78 82 -75 87 3 4 6 8 7 8 1
0 47 -46 102 -102z"/>
<path d="M755 3951 c-103 -31 -166 -69 -245 -150 -140 -142 -200 -307 -200
-550 0 -123 3 -149 30 -245 116 -414 425 -767 775 -887 61 -21 88 -24 205 -23
122 0 142 3 204 27 204 80 329 224 392 452 26 97 27 354 1 470 -105 465 -440
827 -842 910 -99 20 -244 18 -320 -4z"/>
<path d="M6790 1712 c0 -4 25 -32 55 -62 30 -29 53 -55 51 -57 -2 -3 -25 17
-50 44 l-47 48 6 -45 c25 -179 75 -276 176 -337 50 -31 165 -64 236 -68 l63
-3 -238 244 c-130 134 -240 244 -244 244 -5 0 -8 -4 -8 -8z m250 -257 c41 -41
72 -77 69 -79 -3 -3 -41 30 -84 74 -44 44 -75 80 -70 80 6 0 44 -34 85 -75z
m183 -185 c16 -16 25 -30 20 -30 -5 0 -22 14 -38 30 -16 17 -25 30 -19 30 5 0
22 -13 37 -30z"/>
<path d="M6230 788 c-329 -34 -627 -227 -681 -441 -51 -205 280 -294 625 -167
202 74 397 215 446 321 23 52 26 129 6 167 -51 99 -193 142 -396 120z"/>
</g>
</svg>
